<svg width="323" height="56" xmlns="http://www.w3.org/2000/svg">
 <title>icon-sn</title>

 <g>
  <title>background</title>
  <rect fill="none" id="canvas_background" height="58" width="325" y="-1" x="-1"/>
 </g>
 <g>
  <title>Layer 1</title>
  <g stroke="null" id="svg_1" fill-rule="evenodd" fill="none">
   <rect stroke="null" id="svg_2" rx="3" height="28" width="26.757804" fill="none"/>
   <g stroke="null" id="svg_3" fill="#FFF">
    <path stroke="null" id="svg_4" d="m13.203065,13.156l7.090818,0l-0.069761,2.416l-7.021057,0l0,-2.416z"/>
    <path stroke="null" id="svg_5" d="m20.886377,13.156l0,0.09c0.779799,6.153 -3.117284,9.697 -7.788432,9.651c-4.594697,-0.007 -8.319766,-4.006 -8.319766,-8.947c0,-4.944 3.725069,-8.95 8.319766,-8.95c2.401513,0 4.420771,0.903 5.80071,2.47l-1.62267,1.745c-1.012018,-1.113 -2.449295,-1.723 -4.108279,-1.723c-3.315101,0 -6.002349,2.89 -6.002349,6.457c0,3.566 2.687248,6.456 6.002349,6.456c3.316056,0 5.669787,-2.061 5.665009,-6.456c0.004778,-0.272 0,-0.536 -0.017201,-0.793l2.070863,0z"/>
   </g>
   <g stroke="null" id="svg_6">
    <rect stroke="null" id="svg_7" x="107.031215" rx="3" height="28" width="26.757804" fill="none"/>
    <path stroke="null" id="svg_8" fill="#FFF" d="m116.864708,22.667c-2.214208,0 -4.275515,-0.697 -6.010949,-1.89a7.745429,8.105 0 0 0 5.805488,-1.742c-1.716322,-0.035 -3.16411,-1.251 -3.662952,-2.923a3.822543,4 0 0 0 1.770793,-0.072c-1.793728,-0.387 -3.145953,-2.087 -3.145953,-4.126l0,-0.053a3.8321,4.01 0 0 0 1.777483,0.527a4.047118,4.235 0 0 1 -1.744991,-3.503c0,-0.77 0.193038,-1.493 0.530378,-2.115c1.934207,2.546 4.82405,4.22 8.082768,4.396a4.135036,4.327 0 0 1 -0.102253,-0.959c0,-2.323 1.756459,-4.207 3.92193,-4.207c1.12765,0 2.146358,0.511 2.862129,1.329a7.735872,8.095 0 0 0 2.489431,-1.021a4.016537,4.203 0 0 1 -1.723967,2.327a7.689046,8.046 0 0 0 2.252434,-0.662a8.084679,8.46 0 0 1 -1.956187,2.178c0.006689,0.18 0.010512,0.362 0.010512,0.544c0,5.56 -3.943909,11.972 -11.156093,11.972"/>
   </g>
   <g stroke="null" id="svg_9">
    <rect stroke="null" id="svg_10" x="160.546822" rx="3" height="28" width="26.757804" fill="none"/>
    <path stroke="null" id="svg_11" fill="#FFF" d="m172.40913,5c0.053516,0.517 0.071673,0.954 0.071673,1.689c0,4.728 -0.981438,8.006 -3.265408,10.947c-1.124783,1.43 -2.069907,2.244 -3.890394,3.318c0.642187,0.635 0.981438,1.132 1.391406,2.046c1.249016,-0.854 1.838643,-1.331 2.766566,-2.285c1.266217,-1.291 2.033593,-2.364 2.747453,-3.814c0.732017,-1.51 1.053111,-2.424 1.392361,-4.014c0.605873,2.285 1.284375,3.815 2.372844,5.424c1.267173,1.868 2.355642,3 4.532581,4.689c0.428125,-0.954 0.71386,-1.43 1.391406,-2.205c-1.177343,-0.696 -1.712499,-1.113 -2.76561,-2.146c-1.267173,-1.232 -2.05175,-2.285 -2.819126,-3.775c-1.28533,-2.543 -1.748814,-4.649 -1.748814,-8.026c0,-0.477 0.071673,-1.59 0.124233,-1.848l-2.301171,0z"/>
   </g>
   <g stroke="null" id="svg_12">
    <rect stroke="null" id="svg_13" x="214.062429" rx="3" height="28" width="26.757804" fill="none"/>
    <path stroke="null" id="svg_14" fill="#FFF" d="m220.362937,6l14.215083,0l0,1.74l-14.215083,0l0,-1.74zm1.235637,10.358l11.743809,0l0,-6.803l-11.744765,0l0,6.803l0.000956,0zm1.702943,-5.064l8.355124,0l0,3.326l-8.355124,0l0,-3.326zm7.49983,8.985c0.512221,-0.85 0.993861,-1.837 1.440143,-2.955l-1.707721,-0.677a21.664265,22.67 0 0 1 -1.550997,3.632l-2.972983,0c-0.493108,-1.417 -1.049288,-2.629 -1.672363,-3.632l-1.571065,0.677a23.170347,24.246 0 0 1 1.571065,2.955l-4.376812,0l0,1.721l15.019729,0l0,-1.721l-4.178996,0z"/>
   </g>
   <g stroke="null" id="svg_15">
    <rect stroke="null" id="svg_16" x="26.757804" rx="3" height="28" width="26.757804" fill="none"/>
    <path stroke="null" id="svg_17" fill="#FFF" d="m48.737428,14.227c0,-5.094 -3.852168,-9.227 -8.600723,-9.227s-8.600723,4.133 -8.600723,9.227c0,4.073 2.463629,7.533 5.879072,8.758c0.436726,0.084 0.59345,-0.204 0.59345,-0.444c0,-0.217 -0.010512,-0.95 -0.010512,-1.718c0,0 -2.396735,0.552 -2.900355,-1.094c0,0 -0.391811,-1.069 -0.952769,-1.345c0,0 -0.783621,-0.577 0.057338,-0.565c0,0 0.850516,0.072 1.320689,0.95c0.750174,1.417 2.004924,1.008 2.497076,0.768c0.078362,-0.6 0.302937,-0.997 0.548535,-1.237c-1.915094,-0.229 -3.919063,-1.022 -3.919063,-4.554c0,-1.009 0.335428,-1.838 0.884919,-2.475c-0.08983,-0.24 -0.381299,-1.177 0.078362,-2.45c0.727239,-0.24 2.373799,0.949 2.373799,0.949a7.911709,8.279 0 0 1 4.300361,0s1.646561,-1.19 2.363287,-0.95c0.470173,1.274 0.178704,2.211 0.088874,2.451c0.549491,0.637 0.884919,1.466 0.884919,2.475c0,3.544 -2.016392,4.325 -3.93053,4.554c0.313449,0.288 0.582938,0.84 0.582938,1.706l0,2.535c0,0.24 0.145257,0.528 0.581982,0.444c3.415443,-1.225 5.879072,-4.685 5.879072,-8.758z"/>
   </g>
   <g stroke="null" id="svg_18">
    <rect stroke="null" id="svg_19" x="53.515607" rx="3" height="28" width="26.757804" fill="none"/>
    <path stroke="null" id="svg_20" fill="#FFF" d="m64.536956,18.427c-0.30867,0.513 -0.96997,0.737 -1.461167,0.502c-0.479729,-0.234 -0.628808,-0.826 -0.319182,-1.328c0.298158,-0.491 0.938434,-0.714 1.418164,-0.502c0.501709,0.223 0.6613,0.815 0.363142,1.328l-0.000956,0zm1.004373,-1.35a0.453927,0.475 0 0 1 -0.544712,0.212c-0.191127,-0.09 -0.244643,-0.302 -0.138567,-0.503a0.46635,0.488 0 0 1 0.533245,-0.212c0.192083,0.078 0.25611,0.302 0.150035,0.503zm1.855845,1.194c0.640276,-1.496 -0.150035,-3.036 -1.717278,-3.46c-1.504171,-0.402 -3.200424,0.38 -3.860769,1.763c-0.6613,1.418 -0.02198,2.991 1.503215,3.505c1.57871,0.535 3.434555,-0.29 4.074831,-1.808zm3.327524,-1.786c0.202595,2.176 -2.186495,4.196 -5.354428,4.531c-3.167933,0.324 -5.898184,-1.172 -6.100779,-3.348c-0.202595,-2.176 2.186495,-4.196 5.354428,-4.531c3.167933,-0.324 5.898184,1.172 6.100779,3.348zm3.28452,0.045c0,-1.518 -1.215569,-2.378 -2.31455,-2.735c-0.266622,-0.089 -0.447238,-0.145 -0.30867,-0.513c0.298158,-0.804 0.33065,-1.496 0,-1.987c-0.619252,-0.926 -2.31455,-0.881 -4.255446,-0.022c0,-0.011 -0.60874,0.279 -0.458705,-0.234c0.298158,-1.005 0.255155,-1.853 -0.214062,-2.333c-1.055022,-1.105 -3.860769,0.033 -6.270882,2.556c-1.803285,1.886 -2.84875,3.884 -2.84875,5.614c0,3.314 4.052852,5.323 8.020652,5.323c5.193881,0 8.64946,-3.158 8.64946,-5.67l0.000956,0.001zm-0.789355,-6.965a2.440694,2.554 0 0 0 -2.346086,-0.792a0.62403,0.653 0 0 0 -0.479729,0.781c0.064028,0.357 0.40519,0.58 0.746352,0.502a1.210791,1.267 0 0 1 1.39714,1.63a0.625941,0.655 0 1 0 1.194545,0.402c0.267578,-0.849 0.095564,-1.82 -0.512221,-2.523zm1.930384,-1.819c-1.258572,-1.462 -3.10295,-2.009 -4.820227,-1.63a0.72915,0.763 0 0 0 -0.565736,0.905c0.086007,0.413 0.479729,0.68 0.874407,0.591a3.597969,3.765 0 0 1 3.424043,1.16a3.576945,3.743 0 0 1 0.746352,3.684c-0.116588,0.402 0.095564,0.826 0.480685,0.96a0.726283,0.76 0 0 0 0.91741,-0.491c0.532289,-1.741 0.201639,-3.728 -1.056933,-5.179z"/>
   </g>
   <g stroke="null" id="svg_21">
    <rect stroke="null" id="svg_22" x="80.273411" rx="3" height="28" width="26.757804" fill="none"/>
    <path stroke="null" id="svg_23" fill="#FFF" d="m87.470305,13.096c-1.497481,1.185 -2.418714,2.672 -2.418714,4.68c0,0.372 0.086007,0.674 0.220752,1.005c0.057338,0.02 0.028669,0.1 0.10512,0.1l0.009556,0c0.557136,-0.06 1.055978,-0.612 1.267173,-1.124c0.019113,-0.05 0.047782,-0.201 0.115632,-0.201l0.047782,0.03c0.143345,0.723 1.07509,2.47 1.737346,2.632l0.019113,0.03c0,0.03 -0.009556,0.03 -0.019113,0.04c-0.047782,0.01 -0.086007,0.02 -0.133789,0.02c-0.34594,0.02 -0.566692,0.19 -0.863895,0.251c-0.374609,0.362 -0.490241,0.522 -0.490241,1.085c0.000956,1.306 2.822948,1.356 3.552098,1.356c0.825669,0 2.255301,-0.18 2.841105,-0.854c0.249421,0.03 0.595361,-0.01 0.825669,0.06c1.103759,0.342 2.054617,0.663 3.225271,0.663c0.883008,0 2.350864,-0.11 2.898444,-0.974c0.076451,-0.11 0.057338,-0.23 0.10512,-0.341c-0.162458,-0.955 -1.045466,-0.904 -1.592089,-1.457c0.623075,-0.623 0.959458,-1.406 1.266217,-2.24l0.047782,-0.04c0.009556,0 0.019113,0 0.028669,0.01c0.134745,0.261 0.547579,1.215 0.922189,1.215c0.538023,0 0.719594,-1.225 0.719594,-1.577c0,-1.587 -0.748263,-2.973 -1.573932,-4.248c-0.009556,-0.02 -0.066895,-0.1 -0.066895,-0.121c0,-0.241 0.172014,-0.512 0.172014,-0.784c0,-0.542 -0.248465,-1.064 -0.527511,-1.506l-0.009556,-0.05c-0.479729,-2.36 -0.989083,-4.21 -3.244384,-5.204c-0.787444,-0.341 -1.708677,-0.552 -2.553459,-0.552c-1.084647,0 -2.121512,0.17 -3.109639,0.663c-1.603557,0.804 -2.97585,3.144 -2.97585,5.002c-0.192083,0.17 -0.298158,0.703 -0.288602,0.964c-0.162458,0.211 -0.335428,0.663 -0.335428,0.945c0,0.18 0.009556,0.351 0.076451,0.522z"/>
   </g>
   <g stroke="null" id="svg_24">
    <rect stroke="null" id="svg_25" x="133.789018" rx="3" height="28" width="26.757804" fill="none"/>
    <path stroke="null" id="svg_26" fill="#FFF" d="m152.314019,4.144c-0.310582,-0.048 -1.378983,-0.144 -2.618442,-0.144c-2.596463,0 -4.376812,1.659 -4.376812,4.7l0,2.62l-2.929024,0l0,3.557l2.929024,0l0,9.123l3.514829,0l0,-9.123l2.917556,0l0.447238,-3.557l-3.364794,0l0,-2.272c0,-1.022 0.263755,-1.73 1.677141,-1.73l1.803285,0l0,-3.175l0,0.001z"/>
   </g>
   <g stroke="null" id="svg_27">
    <rect stroke="null" id="svg_28" x="187.304626" rx="3" height="28" width="26.757804" fill="none"/>
    <path stroke="null" id="svg_29" fill="#FFF" d="m203.322038,10.384a2.059395,2.155 0 0 0 -2.05844,-2.154c-1.141029,0 -2.05844,0.96 -2.05844,2.154c0,0.301 0.053516,0.591 0.171059,0.86a13.159106,13.77 0 0 0 -1.408607,1.84c-1.311132,2.043 -2.794279,5.503 -2.377622,10.391a0.563825,0.59 0 0 0 0.554269,0.525l0.053516,0a0.568603,0.595 0 0 0 0.500753,-0.636c-0.319182,-3.627 0.416657,-6.853 2.154959,-9.587c0.415702,-0.648 0.842871,-1.194 1.226081,-1.63c0.341162,0.246 0.747307,0.391 1.184988,0.391a2.06704,2.163 0 0 0 2.057484,-2.154zm4.063364,0.123a6.217367,6.506 0 0 0 -6.217367,-6.507a6.225012,6.514 0 0 0 -6.218322,6.507a6.173408,6.46 0 0 0 0.682324,2.957c0.138567,0.29 0.469217,0.402 0.747307,0.257a0.557136,0.583 0 0 0 0.234131,-0.781a5.116474,5.354 0 0 1 4.55456,-7.779c2.815303,0 5.108829,2.4 5.108829,5.346s-2.293526,5.346 -5.108829,5.346a4.663503,4.88 0 0 1 -1.152497,-0.145a0.565736,0.592 0 0 0 -0.6613,0.435a0.568603,0.595 0 0 0 0.416657,0.703c0.458705,0.1 0.926967,0.156 1.39714,0.156c3.4336,0 6.217367,-2.913 6.217367,-6.495z"/>
   </g>
   <g stroke="null" id="svg_30">
    <rect stroke="null" id="svg_31" x="240.820233" rx="3" height="28" width="26.757804" fill="none"/>
    <path stroke="null" id="svg_32" fill="#FFF" d="m249.640752,9.306c0,0.582 -0.368875,0.971 -0.933656,0.971c-0.554269,0 -1.11905,-0.389 -1.11905,-0.971c0,-0.594 0.563825,-0.982 1.118094,-0.982c0.565736,0 0.934612,0.388 0.934612,0.982zm7.627885,5.471c0,0.4 -0.369831,0.788 -0.934612,0.788c-0.368875,0 -0.738707,-0.389 -0.738707,-0.788c0,-0.389 0.369831,-0.777 0.738707,-0.777c0.564781,0 0.934612,0.388 0.934612,0.777zm-2.422537,-5.471c0,0.582 -0.369831,0.971 -0.9241,0.971c-0.563825,0 -1.118094,-0.389 -1.118094,-0.971c0,-0.594 0.554269,-0.982 1.118094,-0.982c0.554269,0 0.9241,0.388 0.9241,0.982zm6.518392,5.471c0,0.4 -0.379387,0.788 -0.933656,0.788c-0.369831,0 -0.739662,-0.389 -0.739662,-0.788c0,-0.389 0.369831,-0.777 0.739662,-0.777c0.554269,0 0.933656,0.388 0.933656,0.777zm-2.730252,-4.284c-0.636453,-3.151 -3.850257,-5.493 -7.504608,-5.493c-4.095855,0 -7.442492,2.924 -7.442492,6.647c0,2.148 1.118094,3.918 2.976806,5.288l-0.738707,2.353l2.597418,-1.37c0.933656,0.194 1.672363,0.388 2.606975,0.388c0.236042,0 0.461572,-0.011 0.697614,-0.033a5.265554,5.51 0 0 1 -0.236042,-1.64c0,-3.41 2.792368,-6.183 6.324398,-6.183c0.245598,0 0.482596,0.01 0.718638,0.043zm6.076888,6.054c0,-3.13 -2.976806,-5.676 -6.323442,-5.676c-3.541586,0 -6.323442,2.546 -6.323442,5.676c0,3.13 2.7809,5.676 6.323442,5.676c0.738707,0 1.487925,-0.205 2.238099,-0.4l2.042194,1.177l-0.563825,-1.953c1.498437,-1.177 2.606975,-2.741 2.606975,-4.5z"/>
   </g>
   <g stroke="null" id="svg_33"/>
   <g stroke="null" id="svg_36">
    <rect stroke="null" id="svg_37" y="28" rx="3" height="28" width="26.757804" fill="none"/>
    <g stroke="null" id="svg_38" fill="#3182F6">
     <path stroke="null" id="svg_39" d="m13.203065,41.156l7.090818,0l-0.069761,2.416l-7.021057,0l0,-2.416z"/>
     <path stroke="null" id="svg_40" d="m20.886377,41.156l0,0.09c0.779799,6.153 -3.117284,9.697 -7.788432,9.651c-4.594697,-0.007 -8.319766,-4.006 -8.319766,-8.947c0,-4.944 3.725069,-8.95 8.319766,-8.95c2.401513,0 4.420771,0.903 5.80071,2.47l-1.62267,1.745c-1.012018,-1.113 -2.449295,-1.723 -4.108279,-1.723c-3.315101,0 -6.002349,2.89 -6.002349,6.457c0,3.566 2.687248,6.456 6.002349,6.456c3.316056,0 5.669787,-2.061 5.665009,-6.456c0.004778,-0.272 0,-0.536 -0.017201,-0.793l2.070863,0z"/>
    </g>
   </g>
   <g stroke="null" id="svg_44">
    <rect stroke="null" id="svg_45" x="107.031215" y="28" rx="3" height="28" width="26.757804" fill="none"/>
    <path stroke="null" id="svg_46" fill="#4BAAF4" d="m116.864708,50.667c-2.214208,0 -4.275515,-0.697 -6.010949,-1.89a7.745429,8.105 0 0 0 5.805488,-1.742c-1.716322,-0.035 -3.16411,-1.251 -3.662952,-2.923a3.822543,4 0 0 0 1.770793,-0.072c-1.793728,-0.387 -3.145953,-2.087 -3.145953,-4.126l0,-0.053a3.8321,4.01 0 0 0 1.777483,0.527a4.047118,4.235 0 0 1 -1.744991,-3.503c0,-0.77 0.193038,-1.493 0.530378,-2.115c1.934207,2.546 4.82405,4.22 8.082768,4.396a4.135036,4.327 0 0 1 -0.102253,-0.959c0,-2.323 1.756459,-4.207 3.92193,-4.207c1.12765,0 2.146358,0.511 2.862129,1.329a7.735872,8.095 0 0 0 2.489431,-1.021a4.016537,4.203 0 0 1 -1.723967,2.327a7.689046,8.046 0 0 0 2.252434,-0.662a8.084679,8.46 0 0 1 -1.956187,2.178c0.006689,0.18 0.010512,0.362 0.010512,0.544c0,5.56 -3.943909,11.972 -11.156093,11.972"/>
   </g>
   <g stroke="null" id="svg_47">
    <rect stroke="null" id="svg_48" x="160.546822" y="28" rx="3" height="28" width="26.757804" fill="none"/>
    <path stroke="null" id="svg_49" fill="#0B79CB" d="m172.40913,33c0.053516,0.517 0.071673,0.954 0.071673,1.689c0,4.728 -0.981438,8.006 -3.265408,10.947c-1.124783,1.43 -2.069907,2.244 -3.890394,3.318c0.642187,0.635 0.981438,1.132 1.391406,2.046c1.249016,-0.854 1.838643,-1.331 2.766566,-2.285c1.266217,-1.291 2.033593,-2.364 2.747453,-3.814c0.732017,-1.51 1.053111,-2.424 1.392361,-4.014c0.605873,2.285 1.284375,3.815 2.372844,5.424c1.267173,1.868 2.355642,3 4.532581,4.689c0.428125,-0.954 0.71386,-1.43 1.391406,-2.205c-1.177343,-0.696 -1.712499,-1.113 -2.76561,-2.146c-1.267173,-1.232 -2.05175,-2.285 -2.819126,-3.775c-1.28533,-2.543 -1.748814,-4.649 -1.748814,-8.026c0,-0.477 0.071673,-1.59 0.124233,-1.848l-2.301171,0z"/>
   </g>
   <g stroke="null" id="svg_50">
    <rect stroke="null" id="svg_51" x="214.062429" y="28" rx="3" height="28" width="26.757804" fill="none"/>
    <path stroke="null" id="svg_52" fill="#1F9832" d="m220.362937,34l14.215083,0l0,1.74l-14.215083,0l0,-1.74zm1.235637,10.358l11.743809,0l0,-6.803l-11.744765,0l0,6.803l0.000956,0zm1.702943,-5.064l8.355124,0l0,3.326l-8.355124,0l0,-3.326zm7.49983,8.985c0.512221,-0.85 0.993861,-1.837 1.440143,-2.955l-1.707721,-0.677a21.664265,22.67 0 0 1 -1.550997,3.632l-2.972983,0c-0.493108,-1.417 -1.049288,-2.629 -1.672363,-3.632l-1.571065,0.677a23.170347,24.246 0 0 1 1.571065,2.955l-4.376812,0l0,1.721l15.019729,0l0,-1.721l-4.178996,0z"/>
   </g>
   <g stroke="null" id="svg_53">
    <rect stroke="null" id="svg_54" x="26.757804" y="28" rx="3" height="28" width="26.757804" fill="none"/>
    <path stroke="null" id="svg_55" fill="#333" d="m48.737428,42.227c0,-5.094 -3.852168,-9.227 -8.600723,-9.227s-8.600723,4.133 -8.600723,9.227c0,4.073 2.463629,7.533 5.879072,8.758c0.436726,0.084 0.59345,-0.204 0.59345,-0.444c0,-0.217 -0.010512,-0.95 -0.010512,-1.718c0,0 -2.396735,0.552 -2.900355,-1.094c0,0 -0.391811,-1.069 -0.952769,-1.345c0,0 -0.783621,-0.577 0.057338,-0.565c0,0 0.850516,0.072 1.320689,0.95c0.750174,1.417 2.004924,1.008 2.497076,0.768c0.078362,-0.6 0.302937,-0.997 0.548535,-1.237c-1.915094,-0.229 -3.919063,-1.022 -3.919063,-4.554c0,-1.009 0.335428,-1.838 0.884919,-2.475c-0.08983,-0.24 -0.381299,-1.177 0.078362,-2.45c0.727239,-0.24 2.373799,0.949 2.373799,0.949a7.911709,8.279 0 0 1 4.300361,0s1.646561,-1.19 2.363287,-0.95c0.470173,1.274 0.178704,2.211 0.088874,2.451c0.549491,0.637 0.884919,1.466 0.884919,2.475c0,3.544 -2.016392,4.325 -3.93053,4.554c0.313449,0.288 0.582938,0.84 0.582938,1.706l0,2.535c0,0.24 0.145257,0.528 0.581982,0.444c3.415443,-1.225 5.879072,-4.685 5.879072,-8.758z"/>
   </g>
   <g stroke="null" id="svg_56">
    <rect stroke="null" id="svg_57" x="53.515607" y="28" rx="3" height="28" width="26.757804" fill="none"/>
    <path stroke="null" id="svg_58" fill="#EC0117" d="m64.536956,46.427c-0.30867,0.513 -0.96997,0.737 -1.461167,0.502c-0.479729,-0.234 -0.628808,-0.826 -0.319182,-1.328c0.298158,-0.491 0.938434,-0.714 1.418164,-0.502c0.501709,0.223 0.6613,0.815 0.363142,1.328l-0.000956,0zm1.004373,-1.35a0.453927,0.475 0 0 1 -0.544712,0.212c-0.191127,-0.09 -0.244643,-0.302 -0.138567,-0.503a0.46635,0.488 0 0 1 0.533245,-0.212c0.192083,0.078 0.25611,0.302 0.150035,0.503zm1.855845,1.194c0.640276,-1.496 -0.150035,-3.036 -1.717278,-3.46c-1.504171,-0.402 -3.200424,0.38 -3.860769,1.763c-0.6613,1.418 -0.02198,2.991 1.503215,3.505c1.57871,0.535 3.434555,-0.29 4.074831,-1.808zm3.327524,-1.786c0.202595,2.176 -2.186495,4.196 -5.354428,4.531c-3.167933,0.324 -5.898184,-1.172 -6.100779,-3.348c-0.202595,-2.176 2.186495,-4.196 5.354428,-4.531c3.167933,-0.324 5.898184,1.172 6.100779,3.348zm3.28452,0.045c0,-1.518 -1.215569,-2.378 -2.31455,-2.735c-0.266622,-0.089 -0.447238,-0.145 -0.30867,-0.513c0.298158,-0.804 0.33065,-1.496 0,-1.987c-0.619252,-0.926 -2.31455,-0.881 -4.255446,-0.022c0,-0.011 -0.60874,0.279 -0.458705,-0.234c0.298158,-1.005 0.255155,-1.853 -0.214062,-2.333c-1.055022,-1.105 -3.860769,0.033 -6.270882,2.556c-1.803285,1.886 -2.84875,3.884 -2.84875,5.614c0,3.314 4.052852,5.323 8.020652,5.323c5.193881,0 8.64946,-3.158 8.64946,-5.67l0.000956,0.001zm-0.789355,-6.965a2.440694,2.554 0 0 0 -2.346086,-0.792a0.62403,0.653 0 0 0 -0.479729,0.781c0.064028,0.357 0.40519,0.58 0.746352,0.502a1.210791,1.267 0 0 1 1.39714,1.63a0.625941,0.655 0 1 0 1.194545,0.402c0.267578,-0.849 0.095564,-1.82 -0.512221,-2.523zm1.930384,-1.819c-1.258572,-1.462 -3.10295,-2.009 -4.820227,-1.63a0.72915,0.763 0 0 0 -0.565736,0.905c0.086007,0.413 0.479729,0.68 0.874407,0.591a3.597969,3.765 0 0 1 3.424043,1.16a3.576945,3.743 0 0 1 0.746352,3.684c-0.116588,0.402 0.095564,0.826 0.480685,0.96a0.726283,0.76 0 0 0 0.91741,-0.491c0.532289,-1.741 0.201639,-3.728 -1.056933,-5.179z"/>
   </g>
   <g stroke="null" id="svg_59">
    <rect stroke="null" id="svg_60" x="80.273411" y="28" rx="3" height="28" width="26.757804" fill="none"/>
    <path stroke="null" id="svg_61" fill="#0098E6" d="m87.470305,41.096c-1.497481,1.185 -2.418714,2.672 -2.418714,4.68c0,0.372 0.086007,0.674 0.220752,1.005c0.057338,0.02 0.028669,0.1 0.10512,0.1l0.009556,0c0.557136,-0.06 1.055978,-0.612 1.267173,-1.124c0.019113,-0.05 0.047782,-0.201 0.115632,-0.201l0.047782,0.03c0.143345,0.723 1.07509,2.47 1.737346,2.632l0.019113,0.03c0,0.03 -0.009556,0.03 -0.019113,0.04c-0.047782,0.01 -0.086007,0.02 -0.133789,0.02c-0.34594,0.02 -0.566692,0.19 -0.863895,0.251c-0.374609,0.362 -0.490241,0.522 -0.490241,1.085c0.000956,1.306 2.822948,1.356 3.552098,1.356c0.825669,0 2.255301,-0.18 2.841105,-0.854c0.249421,0.03 0.595361,-0.01 0.825669,0.06c1.103759,0.342 2.054617,0.663 3.225271,0.663c0.883008,0 2.350864,-0.11 2.898444,-0.974c0.076451,-0.11 0.057338,-0.23 0.10512,-0.341c-0.162458,-0.955 -1.045466,-0.904 -1.592089,-1.457c0.623075,-0.623 0.959458,-1.406 1.266217,-2.24l0.047782,-0.04c0.009556,0 0.019113,0 0.028669,0.01c0.134745,0.261 0.547579,1.215 0.922189,1.215c0.538023,0 0.719594,-1.225 0.719594,-1.577c0,-1.587 -0.748263,-2.973 -1.573932,-4.248c-0.009556,-0.02 -0.066895,-0.1 -0.066895,-0.121c0,-0.241 0.172014,-0.512 0.172014,-0.784c0,-0.542 -0.248465,-1.064 -0.527511,-1.506l-0.009556,-0.05c-0.479729,-2.36 -0.989083,-4.21 -3.244384,-5.204c-0.787444,-0.341 -1.708677,-0.552 -2.553459,-0.552c-1.084647,0 -2.121512,0.17 -3.109639,0.663c-1.603557,0.804 -2.97585,3.144 -2.97585,5.002c-0.192083,0.17 -0.298158,0.703 -0.288602,0.964c-0.162458,0.211 -0.335428,0.663 -0.335428,0.945c0,0.18 0.009556,0.351 0.076451,0.522z"/>
   </g>
   <g stroke="null" id="svg_62">
    <rect stroke="null" id="svg_63" x="133.789018" y="28" rx="3" height="28" width="26.757804" fill="none"/>
    <path stroke="null" id="svg_64" fill="#4862A3" d="m152.314019,32.144c-0.310582,-0.048 -1.378983,-0.144 -2.618442,-0.144c-2.596463,0 -4.376812,1.659 -4.376812,4.7l0,2.62l-2.929024,0l0,3.557l2.929024,0l0,9.123l3.514829,0l0,-9.123l2.917556,0l0.447238,-3.557l-3.364794,0l0,-2.272c0,-1.022 0.263755,-1.73 1.677141,-1.73l1.803285,0l0,-3.175l0,0.001z"/>
   </g>
   <g stroke="null" id="svg_65">
    <rect stroke="null" id="svg_66" x="187.304626" y="28" rx="3" height="28" width="26.757804" fill="none"/>
    <path stroke="null" id="svg_67" fill="#0D9DD4" d="m203.322038,38.384a2.059395,2.155 0 0 0 -2.05844,-2.154c-1.141029,0 -2.05844,0.96 -2.05844,2.154c0,0.301 0.053516,0.591 0.171059,0.86a13.159106,13.77 0 0 0 -1.408607,1.84c-1.311132,2.043 -2.794279,5.503 -2.377622,10.391a0.563825,0.59 0 0 0 0.554269,0.525l0.053516,0a0.568603,0.595 0 0 0 0.500753,-0.636c-0.319182,-3.627 0.416657,-6.853 2.154959,-9.587c0.415702,-0.648 0.842871,-1.194 1.226081,-1.63c0.341162,0.246 0.747307,0.391 1.184988,0.391a2.06704,2.163 0 0 0 2.057484,-2.154zm4.063364,0.123a6.217367,6.506 0 0 0 -6.217367,-6.507a6.225012,6.514 0 0 0 -6.218322,6.507a6.173408,6.46 0 0 0 0.682324,2.957c0.138567,0.29 0.469217,0.402 0.747307,0.257a0.557136,0.583 0 0 0 0.234131,-0.781a5.116474,5.354 0 0 1 4.55456,-7.779c2.815303,0 5.108829,2.4 5.108829,5.346s-2.293526,5.346 -5.108829,5.346a4.663503,4.88 0 0 1 -1.152497,-0.145a0.565736,0.592 0 0 0 -0.6613,0.435a0.568603,0.595 0 0 0 0.416657,0.703c0.458705,0.1 0.926967,0.156 1.39714,0.156c3.4336,0 6.217367,-2.913 6.217367,-6.495z"/>
   </g>
   <g stroke="null" id="svg_68">
    <rect stroke="null" id="svg_69" x="240.999997" y="28" rx="3" height="28" width="26.757804" fill="none"/>
    <path stroke="null" id="svg_70" fill="#00B500" d="m249.820516,37.306c0,0.582 -0.368875,0.971 -0.933656,0.971c-0.554269,0 -1.11905,-0.389 -1.11905,-0.971c0,-0.594 0.563825,-0.982 1.118094,-0.982c0.565736,0 0.934612,0.388 0.934612,0.982zm7.627885,5.471c0,0.4 -0.369831,0.788 -0.934612,0.788c-0.368875,0 -0.738707,-0.389 -0.738707,-0.788c0,-0.389 0.369831,-0.777 0.738707,-0.777c0.564781,0 0.934612,0.388 0.934612,0.777zm-2.422537,-5.471c0,0.582 -0.369831,0.971 -0.9241,0.971c-0.563825,0 -1.118094,-0.389 -1.118094,-0.971c0,-0.594 0.554269,-0.982 1.118094,-0.982c0.554269,0 0.9241,0.388 0.9241,0.982zm6.518392,5.471c0,0.4 -0.379387,0.788 -0.933656,0.788c-0.369831,0 -0.739662,-0.389 -0.739662,-0.788c0,-0.389 0.369831,-0.777 0.739662,-0.777c0.554269,0 0.933656,0.388 0.933656,0.777zm-2.730252,-4.284c-0.636453,-3.151 -3.850257,-5.493 -7.504608,-5.493c-4.095855,0 -7.442492,2.924 -7.442492,6.647c0,2.148 1.118094,3.918 2.976806,5.288l-0.738707,2.353l2.597418,-1.37c0.933656,0.194 1.672363,0.388 2.606975,0.388c0.236042,0 0.461572,-0.011 0.697614,-0.033a5.265554,5.51 0 0 1 -0.236042,-1.64c0,-3.41 2.792368,-6.183 6.324398,-6.183c0.245598,0 0.482596,0.01 0.718638,0.043zm6.076888,6.054c0,-3.13 -2.976806,-5.676 -6.323442,-5.676c-3.541586,0 -6.323442,2.546 -6.323442,5.676c0,3.13 2.7809,5.676 6.323442,5.676c0.738707,0 1.487925,-0.205 2.238099,-0.4l2.042194,1.177l-0.563825,-1.953c1.498437,-1.177 2.606975,-2.741 2.606975,-4.5z"/>
   </g>
   <g stroke="null" id="svg_71">
    <rect y="0" stroke="null" id="svg_72" x="267.999995" rx="3" height="28" width="26.757804" fill="none"/>
    <path stroke="null" id="svg_73" fill="#FFF" d="m281.378896,5c-4.748555,0 -8.600723,4.031 -8.600723,9s3.852168,9 8.600723,9s8.600723,-4.031 8.600723,-9s-3.852168,-9 -8.600723,-9zm3.067591,6.105c0.124233,-0.082 0.324916,-0.187 0.482596,-0.14c0.123277,0.035 0.223619,0.082 0.078362,0.187c-0.066895,0.047 -0.168192,0 -0.246554,0.024c0.101297,0.023 0.246554,0.07 0.201639,0.176c0.291469,0.175 -0.08983,0.386 -0.280001,0.363c0.08983,0.012 -0.191127,0.187 -0.191127,0.176c-0.100342,0.058 -0.234131,0.058 -0.312493,0.164c-0.08983,0.129 0.033447,0.351 -0.133789,0.304c-0.06785,0.153 -0.324916,0.07 -0.437681,0.235c0.123277,0.14 -0.123277,0.34 -0.246554,0.164c-0.111809,0.047 -0.055427,0.176 -0.168192,0.246c0.044915,0.07 0.056383,0.14 -0.02198,0.187c0.02198,-0.011 0.156724,0.106 0.191127,0.118c-0.022935,0.058 -0.06785,0.105 -0.124233,0.105c0.056383,0.152 -0.066895,0.316 -0.167236,0.41c-0.112765,0.094 -0.369831,0.188 -0.403278,0.211c-0.201639,0.2 -0.336384,0.492 0.02198,0.574c0.011468,0 0.011468,0.387 0.022935,0.399c0.02198,0.14 0.078362,0.55 -0.15768,0.398c-0.111809,-0.058 -0.178704,-0.386 -0.212151,-0.515c-0.033447,-0.141 -0.044915,-0.141 -0.133789,-0.282c-0.146212,0.176 -0.169148,0.047 -0.292425,-0.035c-0.122321,-0.07 -0.301981,-0.047 -0.368875,-0.117c-0.168192,0.129 -0.291469,0.094 -0.324916,-0.105c-0.044915,0.093 0.044915,0.234 0.033447,0.27c-0.056383,0.116 -0.156724,0.093 -0.246554,0.023c-0.145257,-0.118 -0.458705,0.082 -0.626897,0c0.011468,0 0.056383,0.046 0.08983,0.07c-0.033447,0.14 -0.111809,0.058 -0.17966,0.105c-0.078362,0.059 -0.145257,0.176 -0.212151,0.235c0.145257,0.293 -0.011468,0.574 0,0.89c0,0.235 0.145257,0.645 0.358363,0.774c0.100342,0.058 0.436726,0.082 0.537067,0.035c0.156724,-0.07 0.133789,-0.2 0.191127,-0.34c0.055427,-0.152 0.122321,-0.223 0.290513,-0.234c0.48164,-0.024 0.111809,0.386 0.056383,0.597c-0.034403,0.153 -0.044915,0.328 -0.066895,0.47c0.055427,0.023 0.111809,0.01 0.167236,0.01c0,-0.046 0.033447,-0.105 0.033447,-0.14c0.066895,0.117 0.291469,0.153 0.358363,0.012c0.078362,0.14 0.235086,0.246 0.258022,0.41c0.02198,0.164 0.168192,0.34 -0.044915,0.34c-0.156724,0 0.02198,0.328 0.044915,0.387c0.123277,0.234 0.324916,0.328 0.548535,0.21c0,0.094 -0.033447,0.352 -0.156724,0.376c-0.111809,0.023 -0.324916,-0.223 -0.280001,-0.352a0.178704,0.187 0 0 1 -0.078362,0.105c-0.111809,-0.14 -0.301981,-0.21 -0.403278,-0.351c-0.02198,-0.035 -0.324916,-0.516 -0.258022,-0.54c-0.156724,0.071 -0.470173,-0.046 -0.615429,-0.128c-0.235086,-0.129 -0.268534,-0.469 -0.560003,-0.422c-0.200684,0.035 -0.258022,0.117 -0.493108,0.023c-0.156724,-0.058 -0.290513,-0.175 -0.447238,-0.257c-0.17966,-0.106 -0.493108,-0.211 -0.560003,-0.446c-0.066895,-0.187 -0.044915,-0.41 -0.146212,-0.586c-0.066895,-0.117 -0.267578,-0.351 -0.41379,-0.351c0.133789,0 -0.124233,-0.352 -0.156724,-0.387c-0.124233,-0.152 -0.57147,-0.562 -0.48164,-0.797c0.02198,-0.035 -0.224574,-0.129 -0.268534,-0.14c0.043959,0.117 0.055427,0.246 0.111809,0.351c0.055427,0.117 0.123277,0.223 0.190172,0.34c0.123277,0.211 0.291469,0.469 0.268534,0.727c-0.145257,0.046 -0.100342,-0.176 -0.145257,-0.27c-0.078362,-0.152 -0.291469,-0.152 -0.346896,-0.316c0.02198,-0.012 0.033447,-0.012 0.055427,-0.024c0.011468,-0.199 -0.268534,-0.363 -0.223619,-0.504c-0.156724,-0.129 -0.156724,-0.375 -0.268534,-0.539c-0.101297,-0.152 -0.269489,-0.222 -0.414746,-0.328c-0.056383,-0.035 -0.458705,-0.574 -0.313449,-0.61c-0.224574,0.06 -0.336384,-0.491 -0.302937,-0.632c0,0 -0.02198,0 -0.02198,-0.012c0.044915,-0.14 -0.033447,-0.867 0.145257,-0.879c-0.123277,0.012 -0.156724,-0.304 -0.123277,-0.363c0.022935,-0.047 0.191127,0.129 0.201639,0.152c0.066895,-0.035 0.134745,-0.129 0.112765,-0.21c-0.034403,-0.094 -0.156724,-0.176 -0.235086,-0.247c-0.034403,-0.023 -0.48164,-0.328 -0.493108,-0.316c0.044915,-0.082 0.033447,-0.164 -0.033447,-0.223c-0.213107,0.176 -0.101297,-0.164 -0.213107,-0.199a0.314404,0.329 0 0 1 -0.133789,-0.094a7.280034,7.618 0 0 1 2.630865,-2.601c0.066895,-0.012 0.156724,-0.012 0.246554,-0.012c0.201639,0.024 0.313449,0.2 0.458705,0.305c0.022935,-0.059 -0.02198,-0.153 -0.055427,-0.211c0.033447,-0.094 0.168192,-0.117 0.246554,-0.14c0.100342,-0.013 0.246554,-0.036 0.335428,0.01c-0.066895,-0.105 -0.145257,-0.198 -0.223619,-0.292c-0.011468,0.012 -0.044915,0.035 -0.056383,0.059c-0.122321,-0.106 -0.358363,0.035 -0.470173,0.082c-0.08983,0.046 -0.168192,0.105 -0.258022,0.14a0.191127,0.2 0 0 1 -0.133789,0.012a6.80126,7.117 0 0 1 1.053111,-0.48c0.066895,0.046 0.133789,0.128 0.235086,0.21c-0.066895,-0.058 -0.066895,0.211 -0.044915,0.258c0.123277,0.176 0.391811,0.059 0.560003,0.059c-0.011468,0 0.492152,0.07 0.391811,-0.059c0.078362,0.117 0.078362,0.293 0.178704,0.399c0.101297,-0.106 -0.043959,-0.223 0.022935,-0.329c0.02198,-0.046 0.223619,-0.105 0.291469,-0.14c0.078362,-0.059 -0.056383,-0.14 -0.08983,-0.164c-0.111809,-0.07 -0.548535,-0.106 -0.336384,-0.375c0.078362,-0.094 0.358363,-0.047 0.448193,0.012c0.123277,0.07 0.258022,0.199 0.08983,0.316c0.078362,0.012 0.448193,0.117 0.391811,0.27c0.033447,-0.07 0.08983,-0.176 0.178704,-0.176c0.101297,0.011 0.124233,0.258 0.168192,0.316c0.156724,0.293 0.426214,-0.293 0.470173,-0.27c-0.200684,-0.081 0.17966,-0.187 0.280001,-0.152c0.078362,0.035 0.201639,0.317 0.056383,0.305c0.123277,0.117 0.133789,0.375 -0.08983,0.363c-0.156724,-0.012 -0.335428,-0.234 -0.48164,-0.058c-0.100342,0.117 -0.145257,0.293 -0.246554,0.398c-0.156724,0.164 -0.368875,0.152 -0.559047,0.129c0.078362,0.012 -0.168192,0.281 -0.191127,0.328a0.634542,0.664 0 0 0 -0.133789,0.27c-0.022935,0.117 0,0.246 -0.056383,0.363c0.191127,-0.059 0.291469,0.305 0.213107,0.316c0.235086,-0.035 0.425258,-0.035 0.649832,0.047c0.156724,0.059 0.391811,0.13 0.458705,0.305c0.044915,-0.07 0.258022,-0.035 0.324916,-0.012c0.133789,0.07 0.145257,0.223 0.178704,0.352c0.044915,0.175 0.191127,0.468 0.381299,0.375c0.033447,-0.024 0.280001,-0.14 0.190172,-0.211c-0.08983,-0.082 -0.191127,-0.293 -0.101297,-0.41c0.08983,-0.13 0.302937,-0.164 0.358363,-0.329c0.08983,-0.27 -0.267578,-0.234 -0.267578,-0.433c0,-0.117 0.145257,-0.152 0.133789,-0.293c0,-0.117 -0.168192,-0.352 -0.033447,-0.434c0.111809,-0.07 0.649832,0.047 0.750174,0.117c0.100342,0.07 0.41379,0.165 0.436726,0.27l-0.056383,0c0.08983,0.082 0.168192,0.258 0.011468,0.305c0.100342,-0.024 0.391811,0.093 0.191127,0.164c0.066895,-0.035 0.122321,-0.012 0.189216,-0.059c0.078362,-0.047 0.124233,-0.129 0.224574,-0.07c0.02198,0.012 0.145257,-0.246 0.212151,-0.235c0.101297,0.012 0.124233,0.165 0.168192,0.235c0.044915,0.105 0.168192,0.14 0.213107,0.246c0.078362,0.2 0.044915,0.387 0.301981,0.457c0.078362,0.023 0.291469,-0.105 0.280001,0.07c0.044915,-0.047 0.066895,-0.082 0.066895,-0.093c0.011468,0.164 0.079318,0.351 0.269489,0.328c0,0 0,0.222 -0.022935,0.258c-0.066895,0.105 -0.235086,0.082 -0.335428,0.14c-0.033447,0.012 -0.302937,0.258 -0.268534,0.293c-0.146212,-0.176 -0.381299,-0.176 -0.57147,-0.129c-0.201639,0.035 -0.391811,0.059 -0.582938,0.14c-0.088874,0.048 -0.178704,0.095 -0.245598,0.177c-0.033447,0.046 -0.08983,0.257 -0.146212,0.27c0.112765,-0.024 0.168192,-0.153 0.258022,-0.224l-0.000956,0zm-1.82622,10.278a1.886425,1.974 0 0 1 -0.02198,-0.188c-0.010512,-0.187 0.17966,-0.316 0.168192,-0.492c-0.123277,-0.035 -0.156724,-0.164 -0.133789,-0.305c0.02198,-0.199 0.190172,-0.34 0.324916,-0.468c0.133789,-0.13 0.167236,-0.399 0.133789,-0.563c-0.056383,-0.281 -0.056383,-0.574 -0.100342,-0.855c0.010512,0.07 0.200684,0.047 0.235086,0.14c0.043959,-0.082 0.066895,-0.187 0.123277,-0.27c0.043959,-0.07 0.122321,-0.093 0.190172,-0.152c0.111809,-0.07 0.346896,-0.34 0.48164,-0.175c0.111809,0.14 -0.168192,0.293 -0.022935,0.422c0.044915,-0.094 0,-0.235 0.08983,-0.329c0.178704,-0.21 0.301981,0.024 0.48164,0.082c0.191127,0.06 0.258022,0.13 0.403278,0.258c-0.044915,-0.047 0.178704,-0.129 0.200684,-0.14c0.213107,-0.047 0.302937,0.082 0.449149,0.199c0.155769,0.117 0.402323,0.2 0.380343,0.433c0.111809,0.024 0.178704,0.06 0.268534,0.094c0.08983,0.047 0.213107,0.024 0.280001,0.094a7.108975,7.439 0 0 1 -3.93053,2.215l-0.000956,0z"/>
   </g>
   <g stroke="null" id="svg_74">
    <rect stroke="null" id="svg_75" x="267.999995" y="28" rx="3" height="28" width="26.757804" fill="none"/>
    <path stroke="null" id="svg_76" fill="#4A90E2" d="m281.378896,33c-4.748555,0 -8.600723,4.031 -8.600723,9s3.852168,9 8.600723,9s8.600723,-4.031 8.600723,-9s-3.852168,-9 -8.600723,-9zm3.067591,6.105c0.124233,-0.082 0.324916,-0.187 0.482596,-0.14c0.123277,0.035 0.223619,0.082 0.078362,0.187c-0.066895,0.047 -0.168192,0 -0.246554,0.024c0.101297,0.023 0.246554,0.07 0.201639,0.176c0.291469,0.175 -0.08983,0.386 -0.280001,0.363c0.08983,0.012 -0.191127,0.187 -0.191127,0.176c-0.100342,0.058 -0.234131,0.058 -0.312493,0.164c-0.08983,0.129 0.033447,0.351 -0.133789,0.304c-0.06785,0.153 -0.324916,0.07 -0.437681,0.235c0.123277,0.14 -0.123277,0.34 -0.246554,0.164c-0.111809,0.047 -0.055427,0.176 -0.168192,0.246c0.044915,0.07 0.056383,0.14 -0.02198,0.187c0.02198,-0.011 0.156724,0.106 0.191127,0.118c-0.022935,0.058 -0.06785,0.105 -0.124233,0.105c0.056383,0.152 -0.066895,0.316 -0.167236,0.41c-0.112765,0.094 -0.369831,0.188 -0.403278,0.211c-0.201639,0.2 -0.336384,0.492 0.02198,0.574c0.011468,0 0.011468,0.387 0.022935,0.399c0.02198,0.14 0.078362,0.55 -0.15768,0.398c-0.111809,-0.058 -0.178704,-0.386 -0.212151,-0.515c-0.033447,-0.141 -0.044915,-0.141 -0.133789,-0.282c-0.146212,0.176 -0.169148,0.047 -0.292425,-0.035c-0.122321,-0.07 -0.301981,-0.047 -0.368875,-0.117c-0.168192,0.129 -0.291469,0.094 -0.324916,-0.105c-0.044915,0.093 0.044915,0.234 0.033447,0.27c-0.056383,0.116 -0.156724,0.093 -0.246554,0.023c-0.145257,-0.118 -0.458705,0.082 -0.626897,0c0.011468,0 0.056383,0.046 0.08983,0.07c-0.033447,0.14 -0.111809,0.058 -0.17966,0.105c-0.078362,0.059 -0.145257,0.176 -0.212151,0.235c0.145257,0.293 -0.011468,0.574 0,0.89c0,0.235 0.145257,0.645 0.358363,0.774c0.100342,0.058 0.436726,0.082 0.537067,0.035c0.156724,-0.07 0.133789,-0.2 0.191127,-0.34c0.055427,-0.152 0.122321,-0.223 0.290513,-0.234c0.48164,-0.024 0.111809,0.386 0.056383,0.597c-0.034403,0.153 -0.044915,0.328 -0.066895,0.47c0.055427,0.023 0.111809,0.01 0.167236,0.01c0,-0.046 0.033447,-0.105 0.033447,-0.14c0.066895,0.117 0.291469,0.153 0.358363,0.012c0.078362,0.14 0.235086,0.246 0.258022,0.41c0.02198,0.164 0.168192,0.34 -0.044915,0.34c-0.156724,0 0.02198,0.328 0.044915,0.387c0.123277,0.234 0.324916,0.328 0.548535,0.21c0,0.094 -0.033447,0.352 -0.156724,0.376c-0.111809,0.023 -0.324916,-0.223 -0.280001,-0.352a0.178704,0.187 0 0 1 -0.078362,0.105c-0.111809,-0.14 -0.301981,-0.21 -0.403278,-0.351c-0.02198,-0.035 -0.324916,-0.516 -0.258022,-0.54c-0.156724,0.071 -0.470173,-0.046 -0.615429,-0.128c-0.235086,-0.129 -0.268534,-0.469 -0.560003,-0.422c-0.200684,0.035 -0.258022,0.117 -0.493108,0.023c-0.156724,-0.058 -0.290513,-0.175 -0.447238,-0.257c-0.17966,-0.106 -0.493108,-0.211 -0.560003,-0.446c-0.066895,-0.187 -0.044915,-0.41 -0.146212,-0.586c-0.066895,-0.117 -0.267578,-0.351 -0.41379,-0.351c0.133789,0 -0.124233,-0.352 -0.156724,-0.387c-0.124233,-0.152 -0.57147,-0.562 -0.48164,-0.797c0.02198,-0.035 -0.224574,-0.129 -0.268534,-0.14c0.043959,0.117 0.055427,0.246 0.111809,0.351c0.055427,0.117 0.123277,0.223 0.190172,0.34c0.123277,0.211 0.291469,0.469 0.268534,0.727c-0.145257,0.046 -0.100342,-0.176 -0.145257,-0.27c-0.078362,-0.152 -0.291469,-0.152 -0.346896,-0.316c0.02198,-0.012 0.033447,-0.012 0.055427,-0.024c0.011468,-0.199 -0.268534,-0.363 -0.223619,-0.504c-0.156724,-0.129 -0.156724,-0.375 -0.268534,-0.539c-0.101297,-0.152 -0.269489,-0.222 -0.414746,-0.328c-0.056383,-0.035 -0.458705,-0.574 -0.313449,-0.61c-0.224574,0.06 -0.336384,-0.491 -0.302937,-0.632c0,0 -0.02198,0 -0.02198,-0.012c0.044915,-0.14 -0.033447,-0.867 0.145257,-0.879c-0.123277,0.012 -0.156724,-0.304 -0.123277,-0.363c0.022935,-0.047 0.191127,0.129 0.201639,0.152c0.066895,-0.035 0.134745,-0.129 0.112765,-0.21c-0.034403,-0.094 -0.156724,-0.176 -0.235086,-0.247c-0.034403,-0.023 -0.48164,-0.328 -0.493108,-0.316c0.044915,-0.082 0.033447,-0.164 -0.033447,-0.223c-0.213107,0.176 -0.101297,-0.164 -0.213107,-0.199a0.314404,0.329 0 0 1 -0.133789,-0.094a7.280034,7.618 0 0 1 2.630865,-2.601c0.066895,-0.012 0.156724,-0.012 0.246554,-0.012c0.201639,0.024 0.313449,0.2 0.458705,0.305c0.022935,-0.059 -0.02198,-0.153 -0.055427,-0.211c0.033447,-0.094 0.168192,-0.117 0.246554,-0.14c0.100342,-0.013 0.246554,-0.036 0.335428,0.01c-0.066895,-0.105 -0.145257,-0.198 -0.223619,-0.292c-0.011468,0.012 -0.044915,0.035 -0.056383,0.059c-0.122321,-0.106 -0.358363,0.035 -0.470173,0.082c-0.08983,0.046 -0.168192,0.105 -0.258022,0.14a0.191127,0.2 0 0 1 -0.133789,0.012a6.80126,7.117 0 0 1 1.053111,-0.48c0.066895,0.046 0.133789,0.128 0.235086,0.21c-0.066895,-0.058 -0.066895,0.211 -0.044915,0.258c0.123277,0.176 0.391811,0.059 0.560003,0.059c-0.011468,0 0.492152,0.07 0.391811,-0.059c0.078362,0.117 0.078362,0.293 0.178704,0.399c0.101297,-0.106 -0.043959,-0.223 0.022935,-0.329c0.02198,-0.046 0.223619,-0.105 0.291469,-0.14c0.078362,-0.059 -0.056383,-0.14 -0.08983,-0.164c-0.111809,-0.07 -0.548535,-0.106 -0.336384,-0.375c0.078362,-0.094 0.358363,-0.047 0.448193,0.012c0.123277,0.07 0.258022,0.199 0.08983,0.316c0.078362,0.012 0.448193,0.117 0.391811,0.27c0.033447,-0.07 0.08983,-0.176 0.178704,-0.176c0.101297,0.011 0.124233,0.258 0.168192,0.316c0.156724,0.293 0.426214,-0.293 0.470173,-0.27c-0.200684,-0.081 0.17966,-0.187 0.280001,-0.152c0.078362,0.035 0.201639,0.317 0.056383,0.305c0.123277,0.117 0.133789,0.375 -0.08983,0.363c-0.156724,-0.012 -0.335428,-0.234 -0.48164,-0.058c-0.100342,0.117 -0.145257,0.293 -0.246554,0.398c-0.156724,0.164 -0.368875,0.152 -0.559047,0.129c0.078362,0.012 -0.168192,0.281 -0.191127,0.328a0.634542,0.664 0 0 0 -0.133789,0.27c-0.022935,0.117 0,0.246 -0.056383,0.363c0.191127,-0.059 0.291469,0.305 0.213107,0.316c0.235086,-0.035 0.425258,-0.035 0.649832,0.047c0.156724,0.059 0.391811,0.13 0.458705,0.305c0.044915,-0.07 0.258022,-0.035 0.324916,-0.012c0.133789,0.07 0.145257,0.223 0.178704,0.352c0.044915,0.175 0.191127,0.468 0.381299,0.375c0.033447,-0.024 0.280001,-0.14 0.190172,-0.211c-0.08983,-0.082 -0.191127,-0.293 -0.101297,-0.41c0.08983,-0.13 0.302937,-0.164 0.358363,-0.329c0.08983,-0.27 -0.267578,-0.234 -0.267578,-0.433c0,-0.117 0.145257,-0.152 0.133789,-0.293c0,-0.117 -0.168192,-0.352 -0.033447,-0.434c0.111809,-0.07 0.649832,0.047 0.750174,0.117c0.100342,0.07 0.41379,0.165 0.436726,0.27l-0.056383,0c0.08983,0.082 0.168192,0.258 0.011468,0.305c0.100342,-0.024 0.391811,0.093 0.191127,0.164c0.066895,-0.035 0.122321,-0.012 0.189216,-0.059c0.078362,-0.047 0.124233,-0.129 0.224574,-0.07c0.02198,0.012 0.145257,-0.246 0.212151,-0.235c0.101297,0.012 0.124233,0.165 0.168192,0.235c0.044915,0.105 0.168192,0.14 0.213107,0.246c0.078362,0.2 0.044915,0.387 0.301981,0.457c0.078362,0.023 0.291469,-0.105 0.280001,0.07c0.044915,-0.047 0.066895,-0.082 0.066895,-0.093c0.011468,0.164 0.079318,0.351 0.269489,0.328c0,0 0,0.222 -0.022935,0.258c-0.066895,0.105 -0.235086,0.082 -0.335428,0.14c-0.033447,0.012 -0.302937,0.258 -0.268534,0.293c-0.146212,-0.176 -0.381299,-0.176 -0.57147,-0.129c-0.201639,0.035 -0.391811,0.059 -0.582938,0.14c-0.088874,0.048 -0.178704,0.095 -0.245598,0.177c-0.033447,0.046 -0.08983,0.257 -0.146212,0.27c0.112765,-0.024 0.168192,-0.153 0.258022,-0.224l-0.000956,0zm-1.82622,10.278a1.886425,1.974 0 0 1 -0.02198,-0.188c-0.010512,-0.187 0.17966,-0.316 0.168192,-0.492c-0.123277,-0.035 -0.156724,-0.164 -0.133789,-0.305c0.02198,-0.199 0.190172,-0.34 0.324916,-0.468c0.133789,-0.13 0.167236,-0.399 0.133789,-0.563c-0.056383,-0.281 -0.056383,-0.574 -0.100342,-0.855c0.010512,0.07 0.200684,0.047 0.235086,0.14c0.043959,-0.082 0.066895,-0.187 0.123277,-0.27c0.043959,-0.07 0.122321,-0.093 0.190172,-0.152c0.111809,-0.07 0.346896,-0.34 0.48164,-0.175c0.111809,0.14 -0.168192,0.293 -0.022935,0.422c0.044915,-0.094 0,-0.235 0.08983,-0.329c0.178704,-0.21 0.301981,0.024 0.48164,0.082c0.191127,0.06 0.258022,0.13 0.403278,0.258c-0.044915,-0.047 0.178704,-0.129 0.200684,-0.14c0.213107,-0.047 0.302937,0.082 0.449149,0.199c0.155769,0.117 0.402323,0.2 0.380343,0.433c0.111809,0.024 0.178704,0.06 0.268534,0.094c0.08983,0.047 0.213107,0.024 0.280001,0.094a7.108975,7.439 0 0 1 -3.93053,2.215l-0.000956,0z"/>
   </g>
   <g stroke="null" id="svg_77">
    <rect y="0" stroke="null" id="svg_78" x="294.999986" rx="3" height="28" width="26.757804" fill="none"/>
    <path stroke="null" id="svg_79" fill="#FFF" d="m303.686716,10.524l-3.695444,0l0,11.476l3.695444,0l0,-11.476zm0.235086,-3.544c-0.011468,-1.123 -0.795089,-1.98 -2.060351,-1.98c-1.25475,0 -2.083286,0.857 -2.083286,1.98c0,1.1 0.795089,1.98 2.038371,1.98l0.02198,0c1.288197,0 2.094754,-0.88 2.083286,-1.98zm13.057808,8.442c0,-3.52 -1.813797,-5.165 -4.243979,-5.165c-1.993456,0 -2.866908,1.147 -3.348548,1.934l0.02198,0l0,-1.667l-3.683976,0s0.044915,1.077 0,11.476l3.683976,0l0,-6.404c0,-0.347 0.033447,-0.683 0.123277,-0.938c0.268534,-0.683 0.873451,-1.39 1.892159,-1.39c1.333112,0 1.871135,1.054 1.871135,2.594l0,6.138l3.683976,0l0,-6.578z"/>
   </g>
   <g stroke="null" id="svg_80">
    <rect stroke="null" id="svg_81" x="294.999986" y="28" rx="3" height="28" width="26.757804" fill="none"/>
    <rect stroke="null" id="svg_82" rx="2" height="18" width="17.201445" y="33" x="299.778165" fill="#0077B9"/>
    <path stroke="null" id="svg_83" fill="#FFF" d="m305.251091,39.574l-2.464585,0l0,7.426l2.464585,0l0,-7.426zm0.156724,-2.293c-0.007645,-0.727 -0.530378,-1.281 -1.374204,-1.281c-0.836181,0 -1.388539,0.554 -1.388539,1.281c0,0.712 0.530378,1.282 1.358914,1.282l0.014335,0c0.859117,0 1.396184,-0.57 1.389495,-1.282zm8.704887,5.463c0,-2.278 -1.209835,-3.342 -2.828682,-3.342c-1.330245,0 -1.911272,0.742 -2.233321,1.251l0.01529,0l0,-1.079l-2.455984,0s0.028669,0.697 0,7.426l2.455984,0l0,-4.144c0,-0.225 0.02198,-0.442 0.082185,-0.607c0.178704,-0.442 0.582938,-0.899 1.261439,-0.899c0.888741,0 1.247105,0.682 1.247105,1.679l0,3.971l2.455984,0l0,-4.256z"/>
   </g>
  </g>
 </g>
</svg>